<svg width="873" height="452" viewBox="0 0 873 452" fill="none" xmlns="http://www.w3.org/2000/svg">
<path d="M667.298 318.5C824.898 298.1 882.631 97.6667 891.798 0L926.798 515.5L803.798 571C523.131 552 -30.3024 499.9 1.29755 443.5C40.7976 373 470.298 344 667.298 318.5Z" fill="url(#paint0_linear_25_39)"/>
<g style="mix-blend-mode:overlay">
<path d="M699.298 332.5C856.898 312.1 914.631 111.667 923.798 14L958.798 529.5L835.798 585C555.131 566 1.69755 513.9 33.2976 457.5C72.7976 387 502.298 358 699.298 332.5Z" fill="url(#paint1_linear_25_39)"/>
</g>
<g style="mix-blend-mode:overlay">
<path d="M722.298 359.5C879.898 339.1 937.631 138.667 946.798 41L981.798 556.5L858.798 612C578.131 593 24.6976 540.9 56.2976 484.5C95.7976 414 525.298 385 722.298 359.5Z" fill="url(#paint2_linear_25_39)"/>
</g>
<g style="mix-blend-mode:overlay">
<path d="M766.298 366.5C923.898 346.1 981.631 145.667 990.798 48L1025.8 563.5L902.798 619C622.131 600 68.6976 547.9 100.298 491.5C139.798 421 569.298 392 766.298 366.5Z" fill="url(#paint3_linear_25_39)"/>
</g>
<defs>
<linearGradient id="paint0_linear_25_39" x1="463.399" y1="0" x2="463.399" y2="571" gradientUnits="userSpaceOnUse">
<stop stop-color="#7F5AF0"/>
<stop offset="1" stop-color="#24212F"/>
</linearGradient>
<linearGradient id="paint1_linear_25_39" x1="495.399" y1="14" x2="495.399" y2="585" gradientUnits="userSpaceOnUse">
<stop stop-color="#7F5AF0"/>
<stop offset="1" stop-color="#24212F"/>
</linearGradient>
<linearGradient id="paint2_linear_25_39" x1="518.399" y1="41" x2="518.399" y2="612" gradientUnits="userSpaceOnUse">
<stop stop-color="#7F5AF0"/>
<stop offset="1" stop-color="#24212F"/>
</linearGradient>
<linearGradient id="paint3_linear_25_39" x1="562.399" y1="48" x2="562.399" y2="619" gradientUnits="userSpaceOnUse">
<stop stop-color="#7F5AF0"/>
<stop offset="1" stop-color="#24212F"/>
</linearGradient>
</defs>
</svg>
